<svg width="358" height="51" fill="none" xmlns="http://www.w3.org/2000/svg"><rect opacity=".8" width="358" height="50.152" rx="2" fill="#000"/><path d="M144.475 22.663c-.486-2.685-2.634-4.27-5.267-4.27-3.35 0-5.779 2.582-5.779 6.724s2.429 6.725 5.779 6.725c2.633 0 4.781-1.585 5.267-4.27h-1.585c-.384 1.815-1.944 2.787-3.682 2.787-2.378 0-4.245-1.841-4.245-5.242 0-3.4 1.867-5.241 4.245-5.241 1.738 0 3.298.971 3.682 2.787h1.585Zm6.345 9.204c2.66 0 4.449-2.02 4.449-5.062 0-3.068-1.789-5.088-4.449-5.088-2.659 0-4.448 2.02-4.448 5.088 0 3.043 1.789 5.062 4.448 5.062Zm0-1.355c-2.019 0-2.94-1.738-2.94-3.707 0-1.969.921-3.733 2.94-3.733 2.02 0 2.941 1.764 2.941 3.733s-.921 3.707-2.941 3.707Zm7.473-8.667h-1.739l3.119 4.909-3.119 4.909h1.739l2.352-3.81 2.352 3.81h1.739l-3.17-4.91 3.17-4.908h-1.739l-2.352 4.014-2.352-4.014Zm8.595 13.5h1.509v-5.19h.128c.332.536.971 1.712 2.863 1.712 2.455 0 4.168-1.968 4.168-5.088 0-3.093-1.713-5.062-4.193-5.062-1.918 0-2.506 1.176-2.838 1.687h-.179v-1.56h-1.458v13.5Zm1.483-8.591c0-2.2.972-3.682 2.813-3.682 1.918 0 2.864 1.61 2.864 3.682 0 2.096-.972 3.758-2.864 3.758-1.815 0-2.813-1.534-2.813-3.758Zm12.375 5.139c1.714 0 2.608-.92 2.915-1.56h.077v1.33h1.508v-6.469c0-3.12-2.377-3.477-3.63-3.477-1.483 0-3.171.511-3.938 2.301l1.432.511c.332-.716 1.119-1.483 2.557-1.483 1.387 0 2.071.735 2.071 1.995v.05c0 .73-.742.666-2.531.896-1.822.236-3.81.639-3.81 2.889 0 1.918 1.483 3.017 3.349 3.017Zm.231-1.355c-1.202 0-2.071-.537-2.071-1.585 0-1.151 1.048-1.509 2.224-1.662.639-.077 2.352-.256 2.608-.563v1.38c0 1.228-.972 2.43-2.761 2.43Zm8.531-8.693H188v9.818h1.508V27.47h4.705v4.193h1.508v-9.818h-1.508v4.218h-4.705v-4.218Zm10.477 7.593v-7.593h-1.509v9.818h1.765l4.704-7.594v7.594h1.509v-9.818h-1.739l-4.73 7.593Zm7.896-6.187h3.247v8.412h1.508V23.25h3.222v-1.406h-7.977v1.406Zm11.686 2.148v-3.554h-1.509v9.818h4.117c2.301 0 3.554-1.406 3.554-3.17 0-1.79-1.253-3.094-3.554-3.094h-2.608Zm0 1.406h2.608c1.195 0 2.045.729 2.045 1.764 0 .99-.85 1.688-2.045 1.688h-2.608v-3.452Z" fill="#fff"/></svg>